<svg width="500" height="500" viewBox="0 0 500 500" fill="none" xmlns="http://www.w3.org/2000/svg">
<g clip-path="url(#clip0_1595_15)">
<rect width="500" height="500" fill="black"/>
<path d="M214.304 244.956C214.304 239.108 211.036 236.184 204.156 236.184H186.784V253.384H204.156C211.036 253.384 214.304 250.976 214.304 244.956ZM211.724 201.268C211.724 195.248 208.456 192.496 201.576 192.496H186.784V209.696H201.576C208.456 209.696 211.724 207.116 211.724 201.268ZM253.348 250.632C253.348 271.96 238.9 284 212.412 284H148.6V162.224H210.692C234.944 162.224 250.596 172.716 250.596 193.872C250.596 208.492 242.168 218.468 230.128 221.564C245.092 225.176 253.348 237.044 253.348 250.632Z" fill="white"/>
<path d="M322.928 204.536C322.928 198.344 319.144 194.216 311.92 194.216H296.784V214.856H311.92C319.144 214.856 322.928 211.76 322.928 204.536ZM258.6 162.224H315.36C345.976 162.224 361.628 179.768 361.628 202.128C361.628 218.124 352.684 231.712 335.312 237.388L361.8 284H319.832L296.956 240.312H296.784V284H258.6V162.224Z" fill="white"/>
<path d="M322.928 204.536C322.928 198.344 319.144 194.216 311.92 194.216H296.784V214.856H311.92C319.144 214.856 322.928 211.76 322.928 204.536ZM258.6 162.224H315.36C345.976 162.224 361.628 179.768 361.628 202.128C361.628 218.124 352.684 231.712 335.312 237.388L361.8 284H319.832L296.956 240.312H296.784V284H258.6V162.224Z" fill="white"/>
<circle cx="350.5" cy="284.5" r="25.5" fill="black"/>
<circle cx="350" cy="284" r="16" fill="white"/>
<path d="M172.168 343.976C172.168 339.08 168.472 335.912 162.328 335.912H153.688V352.04H162.424C168.568 352.04 172.168 348.968 172.168 343.976ZM171.4 327.464C171.4 323.24 168.76 320.168 162.424 320.168H153.688V334.952H162.712C168.424 334.952 171.4 332.024 171.4 327.464ZM173.128 343.976C173.128 348.968 169.72 353 162.424 353H152.728V319.208H162.424C169.48 319.208 172.36 322.856 172.36 327.464C172.36 332.264 169.336 334.712 166.072 335.432C170.008 336.152 173.128 339.512 173.128 343.976ZM201.812 353L198.308 343.688H181.604L178.052 353H176.948L189.476 320.216H190.436L202.916 353H201.812ZM197.972 342.824L189.956 321.752L181.94 342.824H197.972ZM226.848 328.712C226.848 323.48 224.112 320.168 216.864 320.168H209.376V337.352H216.96C223.872 337.352 226.848 333.656 226.848 328.712ZM208.416 319.208H216.864C224.544 319.208 227.856 323.096 227.856 328.712C227.856 334.184 224.688 337.544 218.976 338.168L228.096 353H226.896L217.872 338.264C217.584 338.264 217.248 338.264 216.96 338.264H209.376V353H208.416V319.208ZM265.159 336.152C265.159 346.28 258.439 353.384 249.031 353.384C239.623 353.384 232.903 346.28 232.903 336.152C232.903 326.024 239.623 318.92 249.031 318.92C258.439 318.92 265.159 326.024 265.159 336.152ZM233.911 336.152C233.911 346.328 240.631 352.52 249.031 352.52C257.431 352.52 264.151 346.328 264.151 336.152C264.151 325.976 257.431 319.784 249.031 319.784C240.631 319.784 233.911 325.976 233.911 336.152ZM294.921 319.208C306.681 319.208 312.777 325.448 312.777 336.104C312.777 346.76 306.681 353 294.921 353H286.041V319.208H294.921ZM287.001 352.136H294.921C306.249 352.136 311.817 345.992 311.817 336.104C311.817 326.216 306.249 320.072 294.921 320.072H287.001V352.136ZM336.256 319.208V320.072H320.704V335.672H334.816V336.536H320.704V352.136H336.256V353H319.744V319.208H336.256ZM353.465 351.56L365.849 319.208H366.905L353.945 353H352.985L340.073 319.208H341.177L353.465 351.56Z" fill="white"/>
</g>
<defs>
<clipPath id="clip0_1595_15">
<rect width="500" height="500" fill="white"/>
</clipPath>
</defs>
</svg>
